<mxfile host="app.diagrams.net" modified="2023-02-14T03:30:27.511Z" agent="5.0 (Windows NT 10.0; Win64; x64) AppleWebKit/537.36 (KHTML, like Gecko) Chrome/110.0.0.0 Safari/537.36 Edg/110.0.1587.41" etag="gssuIHKlsoAklxiBcEYf" version="20.5.3" type="github">
  <diagram id="w_hzC8sodyivylZ0Zzky" name="Page-1">
    <mxGraphModel dx="1006" dy="709" grid="1" gridSize="10" guides="1" tooltips="1" connect="1" arrows="1" fold="1" page="1" pageScale="1" pageWidth="850" pageHeight="1100" math="0" shadow="0">
      <root>
        <mxCell id="0" />
        <mxCell id="1" parent="0" />
        <mxCell id="nLrxVzJIgt6UXaU8Axrg-5" style="edgeStyle=orthogonalEdgeStyle;rounded=0;orthogonalLoop=1;jettySize=auto;html=1;exitX=0.55;exitY=0.95;exitDx=0;exitDy=0;exitPerimeter=0;entryX=1;entryY=0.3333333333333333;entryDx=0;entryDy=0;entryPerimeter=0;" edge="1" parent="1" source="nLrxVzJIgt6UXaU8Axrg-1" target="nLrxVzJIgt6UXaU8Axrg-3">
          <mxGeometry relative="1" as="geometry">
            <Array as="points">
              <mxPoint x="330" y="156" />
              <mxPoint x="330" y="360" />
            </Array>
          </mxGeometry>
        </mxCell>
        <mxCell id="nLrxVzJIgt6UXaU8Axrg-1" value="User &amp;amp; Role" style="ellipse;shape=cloud;whiteSpace=wrap;html=1;" vertex="1" parent="1">
          <mxGeometry x="280" y="80" width="120" height="80" as="geometry" />
        </mxCell>
        <mxCell id="nLrxVzJIgt6UXaU8Axrg-14" style="edgeStyle=orthogonalEdgeStyle;rounded=0;orthogonalLoop=1;jettySize=auto;html=1;exitX=0.55;exitY=0.95;exitDx=0;exitDy=0;exitPerimeter=0;entryX=0;entryY=1;entryDx=0;entryDy=0;entryPerimeter=0;" edge="1" parent="1" source="nLrxVzJIgt6UXaU8Axrg-2" target="nLrxVzJIgt6UXaU8Axrg-3">
          <mxGeometry relative="1" as="geometry">
            <Array as="points">
              <mxPoint x="430" y="276" />
              <mxPoint x="430" y="450" />
              <mxPoint x="170" y="450" />
            </Array>
          </mxGeometry>
        </mxCell>
        <mxCell id="nLrxVzJIgt6UXaU8Axrg-2" value="Organization" style="ellipse;shape=cloud;whiteSpace=wrap;html=1;" vertex="1" parent="1">
          <mxGeometry x="365" y="200" width="120" height="80" as="geometry" />
        </mxCell>
        <mxCell id="nLrxVzJIgt6UXaU8Axrg-4" style="edgeStyle=orthogonalEdgeStyle;rounded=0;orthogonalLoop=1;jettySize=auto;html=1;exitX=0.5;exitY=0;exitDx=0;exitDy=0;exitPerimeter=0;entryX=0.31;entryY=0.8;entryDx=0;entryDy=0;entryPerimeter=0;" edge="1" parent="1" source="nLrxVzJIgt6UXaU8Axrg-3" target="nLrxVzJIgt6UXaU8Axrg-1">
          <mxGeometry relative="1" as="geometry" />
        </mxCell>
        <mxCell id="nLrxVzJIgt6UXaU8Axrg-10" style="edgeStyle=orthogonalEdgeStyle;rounded=0;orthogonalLoop=1;jettySize=auto;html=1;exitX=1;exitY=1;exitDx=0;exitDy=0;exitPerimeter=0;entryX=0.31;entryY=0.8;entryDx=0;entryDy=0;entryPerimeter=0;" edge="1" parent="1" source="nLrxVzJIgt6UXaU8Axrg-3" target="nLrxVzJIgt6UXaU8Axrg-2">
          <mxGeometry relative="1" as="geometry" />
        </mxCell>
        <mxCell id="nLrxVzJIgt6UXaU8Axrg-3" value="Actor" style="shape=umlActor;verticalLabelPosition=bottom;verticalAlign=top;html=1;outlineConnect=0;" vertex="1" parent="1">
          <mxGeometry x="170" y="340" width="30" height="60" as="geometry" />
        </mxCell>
        <mxCell id="nLrxVzJIgt6UXaU8Axrg-6" value="Username/password" style="text;html=1;strokeColor=none;fillColor=none;align=center;verticalAlign=middle;whiteSpace=wrap;rounded=0;" vertex="1" parent="1">
          <mxGeometry x="170" y="210" width="130" height="30" as="geometry" />
        </mxCell>
        <mxCell id="nLrxVzJIgt6UXaU8Axrg-8" value="Access token (user)" style="text;html=1;strokeColor=none;fillColor=none;align=center;verticalAlign=middle;whiteSpace=wrap;rounded=0;" vertex="1" parent="1">
          <mxGeometry x="205" y="320" width="115" height="30" as="geometry" />
        </mxCell>
        <mxCell id="nLrxVzJIgt6UXaU8Axrg-11" value="Access token (user)" style="text;html=1;strokeColor=none;fillColor=none;align=center;verticalAlign=middle;whiteSpace=wrap;rounded=0;" vertex="1" parent="1">
          <mxGeometry x="240" y="380" width="115" height="30" as="geometry" />
        </mxCell>
        <mxCell id="nLrxVzJIgt6UXaU8Axrg-15" value="Access token (staff)" style="text;html=1;strokeColor=none;fillColor=none;align=center;verticalAlign=middle;whiteSpace=wrap;rounded=0;" vertex="1" parent="1">
          <mxGeometry x="240" y="460" width="115" height="30" as="geometry" />
        </mxCell>
      </root>
    </mxGraphModel>
  </diagram>
</mxfile>
